<svg width="17" height="17" viewBox="0 0 17 17" fill="none" xmlns="http://www.w3.org/2000/svg">
<path d="M8.2887 17C6.27853 17 4.50678 16.3865 2.97345 15.1595C1.44012 13.9327 0.457367 12.3628 0.0252002 10.45C-0.0286331 10.2513 0.00378357 10.0687 0.12245 9.902C0.24095 9.73533 0.408867 9.6385 0.6262 9.6115C0.8307 9.58467 1.01403 9.62508 1.1762 9.73275C1.33837 9.84042 1.45153 9.99875 1.5157 10.2078C1.89637 11.7526 2.71653 13.0208 3.9762 14.0125C5.23587 15.0042 6.67337 15.5 8.2887 15.5C10.2387 15.5 11.8929 14.8208 13.2512 13.4625C14.6095 12.1042 15.2887 10.45 15.2887 8.5C15.2887 6.55 14.6095 4.89583 13.2512 3.5375C11.8929 2.17917 10.2387 1.5 8.2887 1.5C7.19637 1.5 6.1727 1.74267 5.2177 2.228C4.26253 2.71317 3.44003 3.38075 2.7502 4.23075H4.6157C4.8282 4.23075 5.00628 4.30267 5.14995 4.4465C5.29378 4.59033 5.3657 4.7685 5.3657 4.981C5.3657 5.19367 5.29378 5.37175 5.14995 5.51525C5.00628 5.65892 4.8282 5.73075 4.6157 5.73075H1.1927C0.936534 5.73075 0.721867 5.64408 0.5487 5.47075C0.375367 5.29758 0.2887 5.08292 0.2887 4.82675V1.40375C0.2887 1.19125 0.360617 1.01317 0.50445 0.869501C0.648284 0.725667 0.826534 0.653751 1.0392 0.653751C1.2517 0.653751 1.42978 0.725667 1.57345 0.869501C1.71695 1.01317 1.7887 1.19125 1.7887 1.40375V3.023C2.6002 2.06533 3.57203 1.32208 4.7042 0.79325C5.8362 0.264416 7.03103 0 8.2887 0C9.4687 0 10.5739 0.223084 11.6044 0.66925C12.6349 1.11542 13.5335 1.72183 14.3002 2.4885C15.0669 3.25517 15.6733 4.15367 16.1195 5.184C16.5656 6.2145 16.7887 7.31967 16.7887 8.4995C16.7887 9.67933 16.5656 10.7846 16.1195 11.8152C15.6733 12.8461 15.0669 13.7448 14.3002 14.5115C13.5335 15.2782 12.6349 15.8846 11.6044 16.3307C10.5739 16.7769 9.4687 17 8.2887 17ZM9.06745 8.19625L11.8175 10.9462C11.9559 11.0846 12.0268 11.2586 12.03 11.4683C12.0333 11.6779 11.9625 11.8552 11.8175 12C11.6726 12.1448 11.497 12.2172 11.2907 12.2172C11.0842 12.2172 10.9085 12.1448 10.7637 12L7.8387 9.075C7.7452 8.98133 7.67662 8.87933 7.63295 8.769C7.58945 8.65867 7.5677 8.54467 7.5677 8.427V4.25C7.5677 4.0375 7.63953 3.85933 7.7832 3.7155C7.92703 3.57183 8.10528 3.5 8.31795 3.5C8.53045 3.5 8.70853 3.57183 8.8522 3.7155C8.9957 3.85933 9.06745 4.0375 9.06745 4.25V8.19625Z" fill="#E6E6E6"/>
</svg>
