<?xml version="1.0" encoding="utf-8"?>
<!-- Generator: Adobe Illustrator 27.8.0, SVG Export Plug-In . SVG Version: 6.00 Build 0)  -->
<svg version="1.1" id="Layer_1" xmlns="http://www.w3.org/2000/svg" xmlns:xlink="http://www.w3.org/1999/xlink" x="0px" y="0px"
	 viewBox="0 0 245.5 152.4" style="enable-background:new 0 0 245.5 152.4;" xml:space="preserve">
<style type="text/css">
	.st0{fill:#FFFFFF;}
	.st1{fill:#223F99;}
	.st2{fill:#EF5BA1;}
</style>
<g>
	<g>
		<path class="st0" d="M51,9.9c-1.9,0-3.4,0.4-4.8,1.2c-1,0.6-1.8,1.6-2.4,2.9v-3.8h-6v26.5h6.4V21.9c0-2,0.6-3.6,1.7-4.7
			c1.1-1.1,2.6-1.7,4.4-1.7h2.3V9.9H51z"/>
		<path class="st0" d="M79.3,17.6c-0.6-1.6-1.4-2.9-2.5-4.1c-1.1-1.2-2.5-2.1-4.1-2.8c-1.6-0.7-3.4-1-5.5-1c-2.5,0-4.7,0.6-6.7,1.8
			c-2,1.2-3.6,2.8-4.7,4.9c-1.1,2-1.7,4.4-1.7,7.1c0,2.6,0.6,4.9,1.7,7c1.1,2.1,2.7,3.8,4.8,5c2,1.2,4.4,1.9,7.2,1.9
			c1.8,0,3.5-0.3,5-0.8c1.5-0.6,2.8-1.3,4-2.3c1.1-1,1.9-2.1,2.4-3.4l-5.2-2.5c-0.6,1-1.4,1.9-2.4,2.5c-1,0.6-2.2,0.9-3.7,0.9
			c-1.5,0-2.8-0.3-3.9-1c-1.1-0.7-2-1.6-2.5-2.9c-0.3-0.8-0.5-1.6-0.6-2.5h19.1c0.1-0.4,0.2-0.8,0.2-1.3c0.1-0.5,0.1-1,0.1-1.4
			C80.2,20.8,79.9,19.1,79.3,17.6z M63.7,15.9c1-0.7,2.2-1,3.6-1c1.4,0,2.6,0.3,3.6,1c1,0.7,1.7,1.6,2.1,2.8
			c0.2,0.5,0.3,1.1,0.4,1.7H60.9c0.1-0.6,0.2-1.1,0.4-1.6C61.8,17.5,62.6,16.5,63.7,15.9z"/>
		<path class="st0" d="M122.4,14.4c-0.8-1.5-2-2.7-3.5-3.6c-1.5-0.8-3.1-1.3-5-1.3c-2.1,0-4,0.5-5.6,1.6c-1.1,0.7-1.9,1.6-2.6,2.7
			c-0.6-1-1.4-1.9-2.4-2.6c-1.7-1.1-3.6-1.7-5.8-1.7c-2,0-3.7,0.5-5.2,1.4c-1,0.6-1.7,1.5-2.2,2.5v-3.4h-6v26.5h6.4V21.1
			c0-1.2,0.2-2.2,0.6-3c0.4-0.8,1-1.5,1.8-2c0.8-0.5,1.7-0.7,2.7-0.7c1,0,1.9,0.2,2.7,0.7c0.8,0.5,1.4,1.1,1.8,2
			c0.4,0.8,0.6,1.9,0.6,3v15.6h6.4V21.1c0-1.2,0.2-2.2,0.6-3c0.4-0.8,1-1.5,1.8-2c0.8-0.5,1.7-0.7,2.7-0.7c1.1,0,2,0.2,2.7,0.7
			c0.7,0.5,1.3,1.1,1.8,2c0.4,0.8,0.6,1.9,0.6,3v15.6h6.4V19.6C123.7,17.6,123.3,15.9,122.4,14.4z"/>
		<path class="st0" d="M159.3,10.2v3.1c-0.8-1-1.8-1.8-2.9-2.4c-1.5-0.8-3.2-1.3-5.2-1.3c-2.4,0-4.6,0.6-6.5,1.7
			c-1.9,1.1-3.4,2.6-4.5,4.6c-1.1,2-1.7,4.2-1.7,6.7c0,2.5,0.6,4.7,1.7,6.7c1.1,2,2.6,3.5,4.6,4.7c2,1.1,4.2,1.7,6.6,1.7
			c2,0,3.7-0.4,5.2-1.2c0.9-0.5,1.7-1.2,2.4-1.9v2.9c0,1.3-0.3,2.4-0.8,3.3c-0.6,0.9-1.3,1.7-2.3,2.1c-1,0.5-2.1,0.7-3.4,0.7
			c-1.7,0-3.1-0.4-4.3-1.2c-1.1-0.7-1.9-1.7-2.3-3l-6,2.2c0.6,1.6,1.4,2.9,2.6,4.1c1.2,1.2,2.7,2.1,4.4,2.7c1.7,0.7,3.5,1,5.5,1
			c2.5,0,4.8-0.5,6.7-1.6c2-1,3.5-2.5,4.6-4.3c1.1-1.8,1.7-3.9,1.7-6.2V10.2H159.3z M158.1,26.3c-0.6,1.1-1.4,1.9-2.4,2.5
			c-1,0.6-2.2,0.9-3.6,0.9c-1.4,0-2.6-0.3-3.7-0.9c-1-0.6-1.9-1.5-2.5-2.5c-0.6-1.1-0.9-2.3-0.9-3.7c0-1.4,0.3-2.6,0.9-3.7
			c0.6-1.1,1.5-2,2.5-2.6c1.1-0.6,2.3-0.9,3.6-0.9c1.3,0,2.5,0.3,3.5,0.9c1,0.6,1.9,1.5,2.4,2.6c0.6,1.1,0.9,2.3,0.9,3.7
			C158.9,24,158.6,25.2,158.1,26.3z"/>
		<path class="st0" d="M194.5,17.6c-0.6-1.6-1.4-2.9-2.5-4.1c-1.1-1.2-2.5-2.1-4.1-2.8c-1.6-0.7-3.4-1-5.5-1c-2.5,0-4.7,0.6-6.7,1.8
			c-2,1.2-3.6,2.8-4.7,4.9c-1.1,2-1.7,4.4-1.7,7.1c0,2.6,0.6,4.9,1.7,7c1.1,2.1,2.7,3.8,4.8,5c2,1.2,4.4,1.9,7.2,1.9
			c1.8,0,3.5-0.3,5-0.8c1.5-0.6,2.8-1.3,4-2.3c1.1-1,1.9-2.1,2.4-3.4l-5.2-2.5c-0.6,1-1.4,1.9-2.4,2.5c-1,0.6-2.2,0.9-3.7,0.9
			s-2.8-0.3-3.9-1c-1.1-0.7-2-1.6-2.5-2.9c-0.3-0.8-0.5-1.6-0.6-2.5H195c0.1-0.4,0.2-0.8,0.2-1.3c0.1-0.5,0.1-1,0.1-1.4
			C195.4,20.8,195.1,19.1,194.5,17.6z M178.9,15.9c1-0.7,2.2-1,3.6-1c1.4,0,2.6,0.3,3.6,1c1,0.7,1.7,1.6,2.1,2.8
			c0.2,0.5,0.3,1.1,0.4,1.7H176c0.1-0.6,0.2-1.1,0.4-1.6C177,17.5,177.8,16.5,178.9,15.9z"/>
		<path class="st0" d="M209.3,37.3c-2.8,0-5.3-0.7-7.4-2c-2.1-1.4-3.5-3.2-4.3-5.5l4.8-2.3c0.7,1.5,1.6,2.7,2.8,3.5
			c1.2,0.8,2.6,1.3,4.1,1.3c1.2,0,2.1-0.3,2.8-0.8c0.7-0.5,1-1.2,1-2c0-0.5-0.1-0.9-0.4-1.3c-0.3-0.4-0.6-0.7-1.1-0.9
			c-0.5-0.3-1-0.5-1.5-0.6l-4.3-1.2c-2.2-0.7-4-1.6-5.1-3c-1.1-1.3-1.7-2.9-1.7-4.7c0-1.6,0.4-3,1.2-4.2c0.8-1.2,2-2.2,3.5-2.9
			c1.5-0.7,3.2-1,5.1-1c2.5,0,4.7,0.6,6.6,1.8c1.9,1.2,3.3,2.9,4.1,5.1l-4.9,2.3c-0.5-1.2-1.2-2.2-2.3-2.9c-1.1-0.7-2.3-1.1-3.6-1.1
			c-1.1,0-1.9,0.2-2.5,0.7s-0.9,1.1-0.9,1.9c0,0.5,0.1,0.9,0.4,1.3c0.3,0.4,0.6,0.7,1.1,0.9c0.5,0.2,1,0.4,1.7,0.6l4.2,1.3
			c2.2,0.7,3.9,1.6,5,2.9c1.2,1.3,1.8,2.9,1.8,4.8c0,1.6-0.4,3-1.3,4.2c-0.8,1.2-2,2.1-3.5,2.8C213.1,36.9,211.3,37.3,209.3,37.3z"
			/>
		<g>
			<rect x="128.1" y="10.2" class="st0" width="6.4" height="26.5"/>
			<rect x="128.1" y="0.4" class="st0" width="6.5" height="6.5"/>
		</g>
	</g>
	<g>
		<path class="st0" d="M89.2,128.7l-11.9-24.4c2.9-1.3,5.2-3.1,6.9-5.5c2.7-3.9,4.1-8.6,4.1-14.2c0-3.7-0.6-7-1.8-10
			c-1.2-3-3-5.5-5.6-7.5c-2.5-2-5.7-3.3-9.7-3.9c-0.9-0.2-1.8-0.3-2.9-0.3c-1.1,0-1.9-0.1-2.6-0.1H37.9v65.9h12.4v-22.3h13.9
			l10.8,22.3H89.2z M50.3,74.4h14.8c0.6,0,1.3,0,2.1,0.1c0.8,0.1,1.5,0.2,2.1,0.4c1.7,0.5,3,1.2,3.9,2.3c0.9,1.1,1.5,2.3,1.9,3.6
			c0.3,1.3,0.5,2.6,0.5,3.8c0,1.2-0.2,2.5-0.5,3.8c-0.4,1.3-1,2.5-1.9,3.6c-0.9,1.1-2.2,1.9-3.9,2.3c-0.6,0.2-1.3,0.3-2.1,0.4
			c-0.8,0.1-1.5,0.1-2.1,0.1H50.3V74.4z"/>
		<path class="st0" d="M98.3,72.4v-11h12.5v11H98.3z M98.3,128.7V79.2h12.5v49.4H98.3z"/>
		<path class="st0" d="M156.1,79.2V82c-0.3-0.2-0.6-0.5-0.9-0.7c-3.2-2.3-7.2-3.4-11.9-3.4c-4.7,0-8.8,1.1-12.4,3.4
			c-3.5,2.3-6.2,5.3-8.2,9.3c-1.9,3.9-2.9,8.4-2.9,13.4c0,4.9,1,9.4,2.9,13.3c1.9,3.9,4.6,7,8,9.3c3.4,2.3,7.4,3.4,11.9,3.4
			c4.7,0,8.6-1.1,11.8-3.1v5c0.1,1.8-0.4,3.4-1.4,4.6c-1,1.2-2.3,2.2-4,2.8c-1.6,0.6-3.4,0.9-5.3,0.9c-1.7,0-3.3-0.4-4.8-1.1
			c-1.5-0.8-2.6-1.9-3.4-3.3l-11.5,5.6c1.2,2.1,2.9,4,4.9,5.6c2,1.6,4.3,2.9,6.8,3.8c2.5,0.9,5.2,1.3,8,1.3c3.6,0,7-0.5,10.1-1.4
			c3.1-1,5.7-2.4,7.9-4.4c2.2-2,3.6-4.4,4.4-7.5c0.3-1.1,0.5-2.1,0.6-3.2c0.1-1.1,0.2-2.2,0.2-3.5V79.2H156.1z M151.4,117.1
			c-1.7,1.3-3.9,1.9-6.7,1.9c-2.7,0-4.9-0.7-6.6-2c-1.7-1.3-3-3.2-3.8-5.4c-0.8-2.3-1.2-4.8-1.2-7.6c0-2.7,0.4-5.3,1.3-7.5
			c0.9-2.3,2.2-4.1,4-5.4s4.1-2,6.8-2c2.6,0,4.7,0.6,6.3,1.9c1.6,1.2,2.8,3,3.5,5.3c0.7,2.3,1.1,4.9,1.1,7.9s-0.4,5.6-1.1,7.9
			C154.2,114.1,153,115.8,151.4,117.1z"/>
		<path class="st0" d="M217.3,107.4h6c0.5-6-0.1-11.2-1.8-15.6c-1.7-4.4-4.4-7.9-8.1-10.3c-3.6-2.4-8-3.7-13.2-3.7
			c-4.9,0-9.2,1.1-13,3.3c-3.8,2.2-6.7,5.3-8.8,9.3c-2.1,4-3.2,8.7-3.2,14.1c0,4.9,1.1,9.3,3.3,13.2c2.2,3.8,5.2,6.8,9.1,9
			c3.9,2.2,8.3,3.3,13.4,3.3c4.8,0,9.1-1.3,13.2-3.8c4-2.5,6.9-6,8.8-10.5l-12.5-3.6c-0.9,2-2.2,3.6-4,4.6c-1.7,1.1-3.8,1.6-6.3,1.6
			c-3.9,0-6.8-1.3-8.8-3.8c-1.5-1.8-2.4-4.3-2.8-7.2H211H217.3z M200.7,88.7c3.6,0,6.2,1.1,7.8,3.3c1.1,1.5,1.8,3.5,2.1,6.2h-21.8
			c0.5-2.3,1.3-4.2,2.4-5.7C193.4,90,196.5,88.7,200.7,88.7z"/>
		<path class="st0" d="M232.7,128.7V61.4h12.5v67.3H232.7z"/>
	</g>
	<g>
		<rect x="0.4" y="36.6" class="st1" width="12.5" height="26.4"/>
		<rect x="0.4" y="10.2" class="st0" width="12.5" height="26.4"/>
		<rect x="0.4" y="63" class="st2" width="12.5" height="65.9"/>
	</g>
</g>
</svg>
