<svg width="140" height="32" viewBox="0 0 140 32" fill="none" xmlns="http://www.w3.org/2000/svg">
<path d="M3.05176e-05 12.6431L4.62174 9.97472L6.40063 13.0559L1.77893 15.7242L3.05176e-05 12.6431Z" fill="#EF5BA1"/>
<path d="M4.62166 9.97461L7.7028 8.19571L9.48169 11.2769L6.40055 13.0557L4.62166 9.97461Z" fill="#223F99"/>
<path d="M9.48186 11.2769L12.1502 15.8986L9.06906 17.6775L6.40072 13.0558L9.48186 11.2769Z" fill="#00BDF2"/>
<path d="M10.8478 20.7587L15.4695 18.0903L17.2484 21.1715L12.6267 23.8398L10.8478 20.7587Z" fill="#EF5BA1"/>
<path d="M15.4695 18.0902L18.5506 16.3113L20.3295 19.3925L17.2484 21.1713L15.4695 18.0902Z" fill="#223F99"/>
<path d="M20.3297 19.3926L22.998 24.0143L19.9169 25.7932L17.2485 21.1715L20.3297 19.3926Z" fill="#00BDF2"/>
<path d="M10.7841 6.41687L15.4058 3.74853L17.1847 6.82966L12.563 9.49801L10.7841 6.41687Z" fill="#EF5BA1"/>
<path d="M15.4057 3.74841L18.4868 1.96952L20.2657 5.05066L17.1846 6.82955L15.4057 3.74841Z" fill="#223F99"/>
<path d="M20.2659 5.05066L22.9342 9.67237L19.8531 11.4513L17.1848 6.82955L20.2659 5.05066Z" fill="#00BDF2"/>
<path d="M34.0985 22.6047V7.1212H37.5994V10.5651L37.3148 10.0528C37.6753 8.89535 38.2351 8.08892 38.994 7.63352C39.772 7.17812 40.7018 6.95043 41.7834 6.95043H42.6942V10.2521H41.3564C40.2938 10.2521 39.44 10.5841 38.7948 11.2482C38.1497 11.8934 37.8271 12.8042 37.8271 13.9806V22.6047H34.0985Z" fill="white"/>
<path d="M51.5181 22.9463C49.9242 22.9463 48.5296 22.5857 47.3342 21.8647C46.1388 21.1436 45.209 20.1664 44.5449 18.9331C43.8807 17.6997 43.5487 16.3335 43.5487 14.8345C43.5487 13.2786 43.8807 11.9029 44.5449 10.7075C45.228 9.49306 46.1482 8.53483 47.3057 7.83276C48.4822 7.13069 49.7914 6.77965 51.2335 6.77965C52.4479 6.77965 53.5105 6.97889 54.4213 7.37736C55.3511 7.77583 56.1385 8.3261 56.7837 9.02817C57.4288 9.73024 57.9222 10.5367 58.2637 11.4475C58.6053 12.3393 58.776 13.307 58.776 14.3506C58.776 14.6163 58.7571 14.8914 58.7191 15.176C58.7001 15.4607 58.6527 15.7073 58.5768 15.9161H46.6226V13.0698H56.4706L54.7059 14.4076C54.8767 13.5347 54.8293 12.7567 54.5636 12.0736C54.3169 11.3905 53.8995 10.8498 53.3113 10.4513C52.742 10.0528 52.0494 9.85358 51.2335 9.85358C50.4555 9.85358 49.763 10.0528 49.1558 10.4513C48.5486 10.8308 48.0837 11.4 47.7611 12.159C47.4575 12.8991 47.3437 13.8004 47.4196 14.863C47.3437 15.8117 47.467 16.6561 47.7896 17.3961C48.1311 18.1171 48.6245 18.6769 49.2696 19.0754C49.9337 19.4739 50.6927 19.6731 51.5466 19.6731C52.4005 19.6731 53.1215 19.4928 53.7097 19.1323C54.3169 18.7718 54.7913 18.2879 55.1329 17.6807L58.1499 19.1608C57.8463 19.9008 57.3719 20.5554 56.7267 21.1247C56.0816 21.6939 55.3131 22.1398 54.4213 22.4624C53.5485 22.785 52.5807 22.9463 51.5181 22.9463Z" fill="white"/>
<path d="M61.0332 22.6047V7.1212H64.5341V10.7075L64.1356 10.1097C64.4203 8.99022 64.9895 8.15533 65.8434 7.60506C66.6972 7.05479 67.7029 6.77965 68.8604 6.77965C70.1317 6.77965 71.2512 7.11171 72.2189 7.77583C73.1866 8.43995 73.8128 9.3128 74.0974 10.3944L73.0443 10.4798C73.5187 9.24639 74.2303 8.3261 75.179 7.71891C76.1278 7.09274 77.2188 6.77965 78.4522 6.77965C79.5527 6.77965 80.5299 7.02632 81.3838 7.51967C82.2566 8.01302 82.9397 8.7056 83.4331 9.59742C83.9264 10.4703 84.1731 11.4854 84.1731 12.6429V22.6047H80.4445V13.5252C80.4445 12.8421 80.3212 12.2539 80.0745 11.7606C79.8279 11.2672 79.4863 10.8877 79.0499 10.6221C78.6135 10.3374 78.0822 10.1951 77.456 10.1951C76.8678 10.1951 76.346 10.3374 75.8906 10.6221C75.4352 10.8877 75.0841 11.2672 74.8375 11.7606C74.5908 12.2539 74.4675 12.8421 74.4675 13.5252V22.6047H70.7389V13.5252C70.7389 12.8421 70.6156 12.2539 70.3689 11.7606C70.1222 11.2672 69.7712 10.8877 69.3158 10.6221C68.8794 10.3374 68.3575 10.1951 67.7503 10.1951C67.1621 10.1951 66.6403 10.3374 66.1849 10.6221C65.7295 10.8877 65.3785 11.2672 65.1318 11.7606C64.8851 12.2539 64.7618 12.8421 64.7618 13.5252V22.6047H61.0332Z" fill="white"/>
<path d="M86.7583 22.6047V7.1212H90.4869V22.6047H86.7583ZM86.7583 5.385V1.40027H90.4869V5.385H86.7583Z" fill="white"/>
<path d="M100.874 28.8664C99.7168 28.8664 98.6447 28.6767 97.658 28.2972C96.6713 27.9177 95.8175 27.3864 95.0964 26.7033C94.3943 26.0392 93.882 25.2517 93.5595 24.3409L97.0319 23.0316C97.2596 23.7527 97.7055 24.3314 98.3696 24.7678C99.0527 25.2232 99.8876 25.4509 100.874 25.4509C101.633 25.4509 102.297 25.3086 102.867 25.024C103.455 24.7394 103.91 24.3219 104.233 23.7717C104.555 23.2404 104.717 22.5952 104.717 21.8362V18.3069L105.428 19.1608C104.897 20.0905 104.185 20.7926 103.294 21.267C102.402 21.7414 101.387 21.9785 100.248 21.9785C98.806 21.9785 97.5157 21.6465 96.3772 20.9824C95.2387 20.3182 94.3469 19.4074 93.7018 18.25C93.0566 17.0925 92.734 15.7927 92.734 14.3506C92.734 12.8896 93.0566 11.5898 93.7018 10.4513C94.3469 9.3128 95.2292 8.42098 96.3488 7.77583C97.4683 7.11171 98.7396 6.77965 100.163 6.77965C101.32 6.77965 102.335 7.02632 103.208 7.51967C104.1 7.99404 104.84 8.68663 105.428 9.59742L104.916 10.5367V7.1212H108.445V21.8362C108.445 23.1834 108.113 24.3883 107.449 25.4509C106.804 26.5135 105.912 27.3484 104.774 27.9556C103.654 28.5628 102.354 28.8664 100.874 28.8664ZM100.703 18.5346C101.5 18.5346 102.193 18.3638 102.781 18.0223C103.388 17.6617 103.863 17.1684 104.204 16.5422C104.546 15.9161 104.717 15.195 104.717 14.3791C104.717 13.5821 104.536 12.8706 104.176 12.2444C103.834 11.5993 103.36 11.0964 102.753 10.7359C102.165 10.3754 101.481 10.1951 100.703 10.1951C99.9255 10.1951 99.2235 10.3754 98.5973 10.7359C97.9711 11.0964 97.4778 11.5993 97.1172 12.2444C96.7757 12.8706 96.6049 13.5821 96.6049 14.3791C96.6049 15.176 96.7757 15.8876 97.1172 16.5138C97.4778 17.1399 97.9616 17.6333 98.5688 17.9938C99.195 18.3543 99.9066 18.5346 100.703 18.5346Z" fill="white"/>
<path d="M118.701 22.9463C117.108 22.9463 115.713 22.5857 114.518 21.8647C113.322 21.1436 112.392 20.1664 111.728 18.9331C111.064 17.6997 110.732 16.3335 110.732 14.8345C110.732 13.2786 111.064 11.9029 111.728 10.7075C112.411 9.49306 113.332 8.53483 114.489 7.83276C115.665 7.13069 116.975 6.77965 118.417 6.77965C119.631 6.77965 120.694 6.97889 121.605 7.37736C122.534 7.77583 123.322 8.3261 123.967 9.02817C124.612 9.73024 125.106 10.5367 125.447 11.4475C125.789 12.3393 125.959 13.307 125.959 14.3506C125.959 14.6163 125.94 14.8914 125.902 15.176C125.883 15.4607 125.836 15.7073 125.76 15.9161H113.806V13.0698H123.654L121.889 14.4076C122.06 13.5347 122.013 12.7567 121.747 12.0736C121.5 11.3905 121.083 10.8498 120.495 10.4513C119.925 10.0528 119.233 9.85358 118.417 9.85358C117.639 9.85358 116.946 10.0528 116.339 10.4513C115.732 10.8308 115.267 11.4 114.944 12.159C114.641 12.8991 114.527 13.8004 114.603 14.863C114.527 15.8117 114.65 16.6561 114.973 17.3961C115.314 18.1171 115.808 18.6769 116.453 19.0754C117.117 19.4739 117.876 19.6731 118.73 19.6731C119.584 19.6731 120.305 19.4928 120.893 19.1323C121.5 18.7718 121.975 18.2879 122.316 17.6807L125.333 19.1608C125.03 19.9008 124.555 20.5554 123.91 21.1247C123.265 21.6939 122.496 22.1398 121.605 22.4624C120.732 22.785 119.764 22.9463 118.701 22.9463Z" fill="white"/>
<path d="M134.108 22.9463C132.457 22.9463 131.015 22.5573 129.782 21.7793C128.568 20.9824 127.733 19.9103 127.277 18.5631L130.067 17.2253C130.465 18.0982 131.015 18.7813 131.717 19.2746C132.438 19.768 133.235 20.0146 134.108 20.0146C134.791 20.0146 135.332 19.8628 135.731 19.5592C136.129 19.2556 136.328 18.8572 136.328 18.3638C136.328 18.0602 136.243 17.8135 136.072 17.6238C135.92 17.4151 135.702 17.2443 135.418 17.1115C135.152 16.9597 134.858 16.8363 134.535 16.7415L132.002 16.0299C130.693 15.6504 129.697 15.0717 129.014 14.2937C128.349 13.5157 128.017 12.5955 128.017 11.5329C128.017 10.5841 128.255 9.75871 128.729 9.05664C129.222 8.33559 129.896 7.77583 130.75 7.37736C131.623 6.97889 132.619 6.77965 133.738 6.77965C135.199 6.77965 136.49 7.13069 137.609 7.83276C138.729 8.53483 139.526 9.52152 140 10.7928L137.154 12.1306C136.888 11.4285 136.442 10.8687 135.816 10.4513C135.19 10.0338 134.488 9.82512 133.71 9.82512C133.084 9.82512 132.59 9.96743 132.23 10.2521C131.869 10.5367 131.689 10.9067 131.689 11.3621C131.689 11.6467 131.765 11.8934 131.917 12.1021C132.068 12.3108 132.277 12.4816 132.543 12.6144C132.827 12.7473 133.15 12.8706 133.511 12.9844L135.987 13.7245C137.258 14.104 138.235 14.6732 138.918 15.4322C139.62 16.1912 139.972 17.121 139.972 18.2215C139.972 19.1513 139.725 19.9767 139.231 20.6977C138.738 21.3998 138.055 21.9501 137.182 22.3485C136.309 22.747 135.285 22.9463 134.108 22.9463Z" fill="white"/>
<path d="M85.6503 0.690918H91.3676V5.9397H85.6503V0.690918Z" fill="white"/>
<path d="M86.7302 1.36841H90.522V5.1602H86.7302V1.36841Z" fill="white"/>
</svg>
