<svg width="14" height="14" viewBox="0 0 14 14" fill="none" xmlns="http://www.w3.org/2000/svg">
<path d="M6.99952 8.05327L1.92652 13.1265C1.78802 13.2649 1.61394 13.3357 1.40427 13.339C1.19477 13.3422 1.01752 13.2714 0.872524 13.1265C0.72769 12.9815 0.655273 12.8059 0.655273 12.5995C0.655273 12.3932 0.72769 12.2175 0.872524 12.0725L5.94577 6.99952L0.872524 1.92652C0.73419 1.78802 0.663357 1.61394 0.660023 1.40427C0.656857 1.19477 0.72769 1.01752 0.872524 0.872524C1.01752 0.72769 1.19319 0.655273 1.39952 0.655273C1.60586 0.655273 1.78152 0.72769 1.92652 0.872524L6.99952 5.94577L12.0725 0.872524C12.211 0.73419 12.3851 0.663357 12.5948 0.660023C12.8043 0.656857 12.9815 0.72769 13.1265 0.872524C13.2714 1.01752 13.3438 1.19319 13.3438 1.39952C13.3438 1.60586 13.2714 1.78152 13.1265 1.92652L8.05327 6.99952L13.1265 12.0725C13.2649 12.211 13.3357 12.3851 13.339 12.5948C13.3422 12.8043 13.2714 12.9815 13.1265 13.1265C12.9815 13.2714 12.8059 13.3438 12.5995 13.3438C12.3932 13.3438 12.2175 13.2714 12.0725 13.1265L6.99952 8.05327Z" fill="#B02323"/>
</svg>
